# AST/ASF file generated using VICON BodyLanguage
# -----------------------------------------------
:version 1.10
:name VICON
:units
  mass 1.0
  length 0.45
  angle deg
:documentation
   .ast/.asf automatically generated from VICON data using
   VICON BodyBuilder and BodyLanguage model FoxedUp or BRILLIANT.MOD
:root
   order TX TY TZ RX RY RZ
   axis XYZ
   position 0 0 0  
   orientation 0 0 0 
:bonedata
  begin
     id 1 
     name lhipjoint
     direction 0.537252 -0.787203 0.302774 
     length 2.29576 
     axis 0 0 0  XYZ
  end
  begin
     id 2 
     name lfemur
     direction 0.34202 -0.939693 0  
     length 7.31114  
     axis 0 0 20  XYZ
    dof rx ry rz
    limits (-160.0 20.0)
           (-70.0 70.0)
           (-60.0 70.0)
  end
  begin
     id 3 
     name ltibia
     direction 0.34202 -0.939693 0   
     length 8.36008   
     axis 0 0 20   XYZ
    dof rx
    limits (-10.0 170.0)
  end
  begin
     id 4 
     name lfoot
     direction 0.0969116 -0.266263 0.959016   
     length 2.16704   
     axis -90 7.62852e-016 20   XYZ
    dof rx rz
    limits (-45.0 90.0)
           (-70.0 20.0)
  end
  begin
     id 5 
     name ltoes
     direction 1.53563e-011 -4.21779e-011 1   
     length 1.08338   
     axis -90 7.62852e-016 20   XYZ
    dof rx
    limits (-90.0 20.0)
  end
  begin
     id 6 
     name rhipjoint
     direction -0.588228 -0.754791 0.290308   
     length 2.39434  
     axis 0 0 0  XYZ 
  end
  begin
     id 7 
     name rfemur
     direction -0.34202 -0.939693 0   
     length 7.45207   
     axis 0 0 -20   XYZ
    dof rx ry rz
    limits (-160.0 20.0)
           (-70.0 70.0)
           (-70.0 60.0)
  end
  begin
     id 8 
     name rtibia
     direction -0.34202 -0.939693 0   
     length 8.03565   
     axis 0 0 -20   XYZ
    dof rx
    limits (-10.0 170.0)
 end
 begin
     id 9 
     name rfoot
     direction -0.107009 -0.294004 0.949795   
     length 2.11509  
     axis -90 -7.62852e-016 -20   XYZ
    dof rx rz
    limits (-45.0 90.0)
           (-20.0 70.0)
  end
  begin
     id 10 
     name rtoes
     direction -1.53533e-011 -4.22004e-011 1   
     length 1.05493   
     axis -90 -7.62852e-016 -20   XYZ
    dof rx
    limits (-90.0 20.0)
  end
  begin
     id 11 
     name lowerback
     direction -0.0115208 0.997969 -0.0626515   
     length 2.03153   
     axis 0 0 0   XYZ
    dof rx ry rz
    limits (-20.0 45.0)
           (-30.0 30.0)
           (-30.0 30.0)
  end
  begin
     id 12 
     name upperback
     direction -0.00423475 0.999974 -0.00583614   
     length 2.03619   
     axis 0 0 0   XYZ
    dof rx ry rz
    limits (-20.0 45.0)
           (-30.0 30.0)
           (-30.0 30.0)
  end
  begin
     id 13 
     name thorax
     direction 0.00289429 0.999728 0.0231573   
     length 2.03921   
     axis 0 0 0   XYZ
    dof rx ry rz
    limits (-20.0 45.0)
           (-30.0 30.0)
           (-30.0 30.0)
  end
  begin
     id 14 
     name lowerneck
     direction 0.0188995 0.987777 0.154721   
     length 1.78836   
     axis 0 0 0   XYZ
    dof rx ry rz
    limits (-20.0 45.0)
           (-30.0 30.0)
           (-30.0 30.0)
  end
  begin
     id 15 
     name upperneck
     direction -0.00612612 0.992995 -0.118   
     length 1.81789   
     axis 0 0 0   XYZ
    dof rx ry rz
    limits (-20.0 45.0)
           (-30.0 30.0)
           (-30.0 30.0)
  end
  begin
     id 16
     name head
     direction -0.00420226 0.998397 -0.0564482  
     length 1.82234  
     axis 0 0 0   XYZ
    dof rx ry rz
    limits (-20.0 45.0)
           (-30.0 30.0)
           (-30.0 30.0)
  end
  begin
     id 17 
     name lclavicle
     direction 0.916488 0.396539 0.0529676  
     length 3.51732  
     axis 0 0 0   XYZ
    dof ry rz
    limits (-20.0 10.0)
           (0.0 20.0)
  end
  begin
     id 18 
     name lhumerus
     direction 1 -4.4896e-011 8.36962e-028   
     length 5.45077   
     axis 180 -30 -90   XYZ
    dof rx ry rz
    limits (-60.0 90.0)
           (-90.0 90.0)
           (-90.0 90.0)
  end
  begin
     id 19
     name lradius
     direction 1 -4.48962e-011 3.01407e-027   
     length 3.05488   
     axis 180 -30 -90   XYZ
    dof rx
    limits (-10.0 170.0)
  end
  begin
     id 20
     name lwrist
     direction 1 -4.49002e-011 4.72961e-027   
     length 1.52744   
     axis -2.72261e-015 90 90   XYZ
    dof ry
    limits (-180.0 0.0)
 end
  begin
     id 21 
     name lhand
     direction 1 -4.4899e-011 9.45681e-027   
     length 0.638818   
     axis -6.0311e-015 90 90   XYZ
    dof rx rz
    limits (-90.0 90.0)
           (-45.0 45.0)
  end
  begin
     id 22 
     name lfingers
     direction 1 -4.48871e-011 1.88632e-026   
     length 0.515032   
     axis -1.20625e-014 90 90   XYZ
    dof rx
    limits (0.0 90.0)
  end
  begin
     id 23
     name lthumb
     direction 0.707107 -6.34964e-011 0.707107   
     length 0.739485   
     axis -90 45 6.32835e-014   XYZ
    dof rx rz
    limits (-45.0 45.0)
           (-45.0 45.0)
  end
  begin
     id 24 
     name rclavicle
     direction -0.949427 0.303202 0.0815894   
     length 3.76167  
     axis 0 0 0   XYZ 
    dof ry rz
    limits (-10.0 20.0)
           (-20.0 0.0)
  end
  begin
     id 25 
     name rhumerus
     direction -1 -4.48971e-011 -6.43969e-018  
     length 4.88702   
     axis 180 30 90   XYZ
    dof rx ry rz
    limits (-90.0 60.0)
           (-90.0 90.0)
           (-90.0 90.0)
  end
  begin
     id 26 
     name rradius
     direction -1 -4.48987e-011 5.46662e-027   
     length 3.22603   
     axis 180 30 90   XYZ
    dof rx
    limits (-10.0 170.0)
  end
  begin
     id 27 
     name rwrist
     direction -1 -4.48956e-011 4.72476e-027   
     length 1.61302   
     axis -2.72261e-015 -90 -90   XYZ
    dof ry
    limits (-180.0 0.0)
  end
  begin
     id 28
     name rhand
     direction -1 -4.4889e-011 9.43571e-027   
     length 0.716293   
     axis -6.0311e-015 -90 -90   XYZ
    dof rx rz
    limits (-90.0 90.0)
           (-45.0 45.0)
  end
  begin
     id 29
     name rfingers
     direction -1 -4.48887e-011 1.88701e-026   
     length 0.577494   
     axis -1.20625e-014 -90 -90   XYZ
    dof rx
    limits (0.0 90.0)
  end
  begin
     id 30
     name rthumb
     direction -0.707107 -6.34825e-011 0.707107   
     length 0.829169   
     axis -90 -45 -6.32835e-014   XYZ
    dof rx rz
    limits (-45.0 45.0)
           (-45.0 45.0)
  end
:hierarchy
  begin
    root lhipjoint rhipjoint lowerback
    lhipjoint lfemur
    lfemur ltibia
    ltibia lfoot
    lfoot ltoes
    rhipjoint rfemur
    rfemur rtibia
    rtibia rfoot
    rfoot rtoes
    lowerback upperback
    upperback thorax
    thorax lowerneck lclavicle rclavicle
    lowerneck upperneck
    upperneck head
    lclavicle lhumerus
    lhumerus lradius
    lradius lwrist
    lwrist lhand lthumb
    lhand lfingers
    rclavicle rhumerus
    rhumerus rradius
    rradius rwrist
    rwrist rhand rthumb
    rhand rfingers
  end

#!OML:ASF F:\VICON\USERDATA\INSTALL\rory3\rory3.ASF
:FULLY-SPECIFIED
:DEGREES
406
root 1.36721 18.5669 0.578839 150.056 87.9098 136.935
lowerback -9.94273 0.0888948 0.201304
upperback -3.23176 0.233723 -0.935907
thorax 2.22069 0.160107 -1.05218
lowerneck -21.4119 -0.593581 2.49739
upperneck 19.7859 -1.70057 0.53499
head 9.80137 -0.498681 -0.463884
rclavicle 9.98582e-016 -3.52843e-015
rhumerus -35.3276 -16.3667 -46.2199
rradius 93.9875
rwrist -153.621
rhand -26.3855 -4.79649
rfingers 7.12502
rthumb 0.173383 -34.7762
lclavicle 9.98582e-016 -3.52843e-015
lhumerus -34.1031 16.9875 42.224
lradius 91.8126
lwrist 173.055
lhand -26.11 -35.4111
lfingers 7.12502
lthumb 0.439535 -5.43182
rfemur -9.1703 -12.8014 17.384
rtibia 1.98785e-015
rfoot -1.69071 11.8439
rtoes -10.4194
lfemur -16.9706 8.03309 -19.6624
ltibia 15.8507
lfoot -11.6591 -3.84234
ltoes -25.695
407
root 1.36752 18.5679 0.578889 150.997 87.8706 137.872
lowerback -9.96053 0.0576149 0.218955
upperback -3.22117 0.188968 -0.89629
thorax 2.24047 0.137775 -1.02633
lowerneck -21.4325 -0.561871 2.44213
upperneck 19.7867 -1.64092 0.539878
head 9.80645 -0.474938 -0.44464
rclavicle -2.62924e-015 -9.0944e-015
rhumerus -35.3305 -16.4323 -46.2839
rradius 94.1096
rwrist -153.793
rhand -26.3642 -4.82263
rfingers 7.12502
rthumb 0.193952 -34.8023
lclavicle -2.62924e-015 -9.0944e-015
lhumerus -34.1764 17.0571 42.4129
lradius 91.8379
lwrist 173.123
lhand -25.9454 -35.3024
lfingers 7.12502
lthumb 0.5985 -5.32345
rfemur -9.16804 -12.8525 17.3965
rtibia -3.97569e-016
rfoot -1.7506 11.8337
rtoes -10.4041
lfemur -16.9889 7.96549 -19.6467
ltibia 15.8474
lfoot -11.6364 -3.84569
ltoes -25.6293
408
root 1.36688 18.5679 0.576511 151.169 87.8019 138.047
lowerback -9.95981 0.040175 0.252972
upperback -3.23035 0.162761 -0.894904
thorax 2.23009 0.124775 -1.04711
lowerneck -21.312 -0.545368 2.40671
upperneck 19.7296 -1.61214 0.585763
head 9.7655 -0.459995 -0.417743
rclavicle -3.41972e-015 -4.00054e-015
rhumerus -35.3684 -16.4623 -46.3203
rradius 94.2297
rwrist -153.898
rhand -26.3061 -4.74954
rfingers 7.12502
rthumb 0.250107 -34.7291
lclavicle -3.41972e-015 -4.00054e-015
lhumerus -34.203 17.1223 42.522
lradius 91.865
lwrist 173.012
lhand -25.966 -34.7109
lfingers 7.12502
lthumb 0.578592 -4.73194
rfemur -9.16188 -12.9191 17.3534
rtibia 2.50469e-014
rfoot -1.78685 11.8408
rtoes -10.2998
lfemur -17.0116 7.92759 -19.6977
ltibia 15.8684
lfoot -11.6279 -3.8712
ltoes -25.5629
409
root 1.36802 18.5674 0.574045 152.046 87.7824 138.932
lowerback -9.98072 0.0369946 0.330971
upperback -3.23469 0.150774 -0.881393
thorax 2.23691 0.118845 -1.07845
lowerneck -21.2235 -0.518333 2.41101
upperneck 19.6997 -1.57495 0.597865
head 9.73946 -0.441598 -0.408317
rclavicle -2.58808e-015 -2.08724e-015
rhumerus -35.3559 -16.5009 -46.3723
rradius 94.3336
rwrist -153.885
rhand -26.2126 -4.76237
rfingers 7.12502
rthumb 0.34041 -34.7418
lclavicle -2.58808e-015 -2.08724e-015
lhumerus -34.2399 17.1146 42.6588
lradius 91.9482
lwrist 172.956
lhand -25.8277 -34.4581
lfingers 7.12502
lthumb 0.712145 -4.47953
rfemur -9.14099 -12.955 17.362
rtibia 1.86858e-014
rfoot -1.70595 11.8241
rtoes -9.9053
lfemur -17.0109 7.91424 -19.69
ltibia 15.8918
lfoot -11.6468 -3.87442
ltoes -25.4405
410
root 1.36993 18.5678 0.573053 152.82 87.7833 139.712
lowerback -9.99784 0.0426569 0.419486
upperback -3.26261 0.151258 -0.898231
thorax 2.21753 0.119292 -1.14566
lowerneck -21.1128 -0.480365 2.5238
upperneck 19.7055 -1.53512 0.520797
head 9.72034 -0.42356 -0.447572
rclavicle 1.36043e-015 -9.93923e-016
rhumerus -35.4162 -16.474 -46.4707
rradius 94.4575
rwrist -153.768
rhand -26.1165 -4.7095
rfingers 7.12502
rthumb 0.433197 -34.6888
lclavicle 1.36043e-015 -9.93923e-016
lhumerus -34.2387 16.9881 42.7838
lradius 92.0711
lwrist 172.776
lhand -25.7147 -34.5718
lfingers 7.12502
lthumb 0.821313 -4.59364
rfemur -9.12097 -12.9689 17.3855
rtibia -5.56597e-015
rfoot -1.70851 11.8454
rtoes -9.96072
lfemur -17.0159 7.92963 -19.6664
ltibia 15.9077
lfoot -11.6416 -3.87934
ltoes -25.5533
411
root 1.37165 18.5683 0.572527 154.209 87.7681 141.11
lowerback -10.0253 0.0164205 0.476853
upperback -3.27058 0.110361 -0.871273
thorax 2.22338 0.0990588 -1.15487
lowerneck -21.1501 -0.433492 2.58278
upperneck 19.8364 -1.47567 0.457997
head 9.77309 -0.396217 -0.471351
rclavicle 4.14652e-016 1.05107e-014
rhumerus -35.3473 -16.3351 -46.5062
rradius 94.5273
rwrist -153.7
rhand -26.0107 -4.69611
rfingers 7.12502
rthumb 0.535445 -34.6752
lclavicle 4.14652e-016 1.05107e-014
lhumerus -34.2102 16.9385 42.8533
lradius 92.0801
lwrist 172.655
lhand -25.4315 -34.8178
lfingers 7.12502
lthumb 1.09478 -4.84087
rfemur -9.10318 -13.0063 17.426
rtibia 2.0276e-014
rfoot -1.70461 11.8648
rtoes -9.96638
lfemur -17.0184 7.91371 -19.6246
ltibia 15.924
lfoot -11.648 -3.88214
ltoes -25.5998
